# xmcd
#
# Track frame offsets:
#	150
#	14107
#	34005
#	50707
#	67917
#	83662
#	97295
#	114622
#	135037
#	147337
#	160707
#	176162
#	195680
#	210425
#	226117
#	243862
#
# Disc length: 3502 seconds
#
# Revision: 1
# Processed by: cddbd v1.5.2PL0 Copyright (c) Steve Scherf et al.
# Submitted via: audiograbber 1.82.02
#
DISCID=d50dac10
DTITLE=Nashville Session Singers - Country Lovin' N Line Dancin'
DYEAR=1996
DGENRE=Country
TTITLE0=She's Every Women
TTITLE1=If Tomorrow Never Comes
TTITLE2=Love Me
TTITLE3=Your Love Amazes Me
TTITLE4=And Still
TTITLE5=Super Love
TTITLE6=Livin' On Love
TTITLE7=I Can Love You Like That
TTITLE8=Holdin' Heaven
TTITLE9=Love's Got A Hold On You
TTITLE10=Queen Of My Double Wide Trailer
TTITLE11=When You Say Nothing At All
TTITLE12=Baby's Got Her Blue Jeans On
TTITLE13=It's Such A Small World
TTITLE14=The Heart Is A Lonly Hunter
TTITLE15=The Call Of The Wild
EXTD=
EXTT0=
EXTT1=
EXTT2=
EXTT3=
EXTT4=
EXTT5=
EXTT6=
EXTT7=
EXTT8=
EXTT9=
EXTT10=
EXTT11=
EXTT12=
EXTT13=
EXTT14=
EXTT15=
PLAYORDER=
